<svg xmlns="http://www.w3.org/2000/svg" xmlns:xlink="http://www.w3.org/1999/xlink" width="500" zoomAndPan="magnify" viewBox="0 0 375 374.999991" height="500" preserveAspectRatio="xMidYMid meet" version="1.0"><defs><g/><clipPath id="999d4d21e2"><path d="M 190.421875 139.785156 L 223.855469 139.785156 L 223.855469 189.9375 L 190.421875 189.9375 Z M 190.421875 139.785156 " clip-rule="nonzero"/></clipPath></defs><g clip-path="url(#999d4d21e2)"><path fill="#beaa8e" d="M 191.476562 187.1875 C 190.042969 164.910156 197.1875 160.867188 204.738281 156.589844 C 205.941406 155.910156 207.152344 155.226562 208.34375 154.464844 C 206.695312 155.40625 205.027344 156.164062 203.417969 156.894531 C 195.210938 160.621094 188.109375 163.839844 191.476562 187.1875 Z M 191.703125 187.40625 C 192.167969 166.199219 198.925781 161.476562 206.070312 156.480469 C 207.371094 155.574219 208.679688 154.65625 209.960938 153.628906 C 208.292969 154.824219 206.558594 155.804688 204.847656 156.773438 C 200.988281 158.957031 197.351562 161.019531 194.835938 165.351562 C 192.019531 170.203125 191.023438 177.214844 191.703125 187.40625 Z M 207.292969 156.433594 C 208.769531 155.167969 210.21875 153.921875 211.601562 152.527344 C 209.851562 154.113281 208.015625 155.394531 206.199219 156.660156 C 199.074219 161.636719 192.359375 166.335938 191.921875 187.550781 C 194.320312 167.574219 200.910156 161.910156 207.292969 156.433594 Z M 208.339844 156.574219 C 209.847656 154.988281 211.324219 153.433594 212.71875 151.703125 C 211.050781 153.519531 209.269531 155.050781 207.445312 156.613281 C 201.082031 162.074219 194.5 167.726562 192.128906 187.757812 C 196.402344 169.152344 202.746094 162.46875 208.339844 156.574219 Z M 209.023438 157.28125 C 210.765625 155.027344 212.394531 152.917969 213.902344 150.585938 C 212.214844 152.855469 210.394531 154.773438 208.523438 156.742188 C 202.945312 162.621094 196.625 169.28125 192.359375 187.855469 C 198.304688 171.136719 204.003906 163.773438 209.023438 157.28125 Z M 208.226562 160.636719 C 210.78125 156.644531 212.925781 153.28125 214.824219 149.609375 C 213.121094 152.402344 211.253906 154.828125 209.234375 157.441406 C 204.214844 163.929688 198.523438 171.28125 192.589844 188 C 199.167969 174.84375 204.191406 166.964844 208.226562 160.636719 Z M 215.558594 148.765625 C 213.539062 152.835938 211.242188 156.433594 208.46875 160.78125 C 204.425781 167.113281 199.398438 174.984375 192.824219 188.144531 C 206.039062 168.320312 211.4375 158.886719 215.558594 148.765625 Z M 216.296875 147.683594 C 212.109375 158.273438 206.820312 167.65625 193.121094 188.207031 C 209.339844 169.398438 213.207031 157.804688 216.296875 147.683594 Z M 216.566406 148.203125 C 216.65625 147.773438 216.746094 147.347656 216.835938 146.929688 C 213.703125 157.257812 210.066406 168.980469 193.433594 188.296875 C 211.605469 171.671875 214.359375 158.664062 216.566406 148.203125 Z M 217.082031 148.183594 C 217.164062 147.46875 217.25 146.785156 217.332031 146.121094 C 217.179688 146.824219 217.027344 147.539062 216.875 148.265625 C 214.773438 158.1875 211.90625 171.746094 193.808594 188.371094 C 214.089844 173.539062 215.894531 158.300781 217.082031 148.183594 Z M 217.6875 147.625 C 217.710938 146.820312 217.730469 146.058594 217.757812 145.339844 C 217.632812 146.253906 217.519531 147.210938 217.398438 148.21875 C 216.207031 158.34375 214.40625 173.5625 194.300781 188.40625 C 216.894531 175.078125 217.386719 157.917969 217.6875 147.625 Z M 218.242188 146.746094 C 218.199219 145.984375 218.160156 145.261719 218.128906 144.585938 C 218.078125 145.523438 218.046875 146.535156 218.015625 147.636719 C 217.722656 157.941406 217.230469 175.078125 194.859375 188.46875 C 219.953125 176.476562 218.839844 157.1875 218.242188 146.746094 Z M 218.6875 145.601562 C 218.601562 145.015625 218.523438 144.464844 218.457031 143.953125 C 218.484375 144.792969 218.535156 145.722656 218.59375 146.726562 C 219.191406 157.179688 220.296875 176.460938 195.453125 188.566406 C 223.277344 177.808594 220.1875 156.128906 218.6875 145.601562 Z M 218.953125 144.183594 C 218.871094 143.835938 218.796875 143.511719 218.726562 143.203125 C 218.8125 143.914062 218.925781 144.703125 219.046875 145.554688 C 220.542969 156.089844 223.625 177.726562 196.195312 188.660156 C 226.96875 179.050781 221.375 154.710938 218.953125 144.183594 Z M 218.835938 174.445312 C 225.542969 162.808594 220.832031 148.222656 218.964844 142.5625 C 219.070312 143.035156 219.1875 143.550781 219.3125 144.101562 C 220.542969 149.417969 222.59375 158.332031 220.203125 167.261719 C 217.484375 177.425781 209.683594 184.660156 197 188.796875 C 207.535156 186.144531 214.875 181.320312 218.835938 174.445312 Z M 221.125 174.046875 C 227.054688 162.230469 221.527344 147.292969 219.175781 141.96875 C 219.210938 142.074219 219.246094 142.183594 219.28125 142.289062 C 221.125 147.886719 226.019531 162.746094 219.167969 174.640625 C 215.265625 181.417969 208.140625 186.226562 197.957031 188.953125 C 209.539062 186.613281 217.328125 181.613281 221.125 174.046875 Z M 203.335938 156.710938 C 206.761719 155.160156 210.457031 153.480469 213.636719 150.132812 C 213.738281 150.019531 213.84375 149.902344 213.949219 149.785156 C 214.488281 149.140625 215.015625 148.449219 215.523438 147.699219 C 215.617188 147.550781 215.714844 147.402344 215.808594 147.25 C 216.066406 146.808594 216.320312 146.351562 216.566406 145.878906 C 216.71875 145.570312 216.867188 145.253906 217.015625 144.929688 C 217.132812 144.648438 217.253906 144.359375 217.367188 144.066406 C 217.453125 143.835938 217.539062 143.601562 217.625 143.367188 C 217.683594 143.175781 217.746094 142.984375 217.808594 142.796875 C 217.867188 142.582031 217.921875 142.371094 217.980469 142.160156 C 218.011719 142.027344 218.042969 141.894531 218.074219 141.765625 C 218.101562 141.605469 218.132812 141.453125 218.164062 141.300781 C 218.179688 141.152344 218.199219 141.011719 218.222656 140.871094 C 218.230469 140.742188 218.242188 140.621094 218.257812 140.507812 C 218.253906 140.40625 218.257812 140.308594 218.265625 140.226562 C 218.25 140.132812 218.242188 140.058594 218.246094 139.996094 C 218.238281 139.980469 218.234375 139.972656 218.234375 139.96875 L 218.25 139.960938 C 218.253906 139.933594 218.257812 139.910156 218.265625 139.886719 L 218.339844 139.914062 L 218.578125 139.785156 C 218.59375 139.8125 218.792969 140.195312 219.109375 140.871094 L 219.113281 140.875 C 219.121094 140.898438 219.132812 140.917969 219.144531 140.941406 L 219.152344 140.945312 C 219.152344 140.949219 219.152344 140.953125 219.148438 140.957031 C 219.15625 140.96875 219.164062 140.984375 219.171875 141 L 219.1875 141.007812 C 219.1875 141.011719 219.183594 141.019531 219.183594 141.027344 C 221.285156 145.5625 227.808594 161.628906 221.476562 174.226562 C 217.261719 182.628906 208.222656 187.917969 194.621094 189.9375 L 194.59375 189.753906 C 194.539062 189.761719 194.484375 189.777344 194.429688 189.789062 L 194.390625 189.585938 C 194.339844 189.597656 194.289062 189.613281 194.242188 189.628906 L 194.1875 189.425781 C 194.144531 189.441406 194.101562 189.457031 194.054688 189.472656 L 193.980469 189.261719 C 193.941406 189.28125 193.90625 189.296875 193.871094 189.3125 L 193.773438 189.105469 C 193.742188 189.121094 193.710938 189.140625 193.679688 189.160156 L 193.5625 188.945312 C 193.539062 188.964844 193.515625 188.980469 193.492188 189 L 193.34375 188.792969 C 193.328125 188.804688 193.316406 188.820312 193.300781 188.835938 L 193.132812 188.648438 C 193.125 188.65625 193.121094 188.660156 193.113281 188.667969 L 192.921875 188.507812 C 192.921875 188.507812 192.917969 188.507812 192.917969 188.507812 L 192.6875 188.347656 C 192.691406 188.34375 192.695312 188.335938 192.699219 188.332031 L 192.476562 188.222656 C 192.484375 188.203125 192.492188 188.1875 192.503906 188.171875 L 192.277344 188.089844 C 192.285156 188.066406 192.296875 188.042969 192.304688 188.015625 L 192.082031 187.960938 C 192.089844 187.925781 192.097656 187.894531 192.105469 187.859375 L 191.886719 187.832031 C 191.890625 187.789062 191.898438 187.746094 191.902344 187.699219 L 191.695312 187.695312 C 191.695312 187.644531 191.699219 187.59375 191.699219 187.546875 L 191.5 187.558594 C 191.496094 187.503906 191.492188 187.449219 191.488281 187.390625 L 191.308594 187.421875 C 187.84375 163.738281 195.027344 160.480469 203.335938 156.710938 " fill-opacity="1" fill-rule="nonzero"/></g><g fill="#beaa8e" fill-opacity="1"><g transform="translate(101.965985, 229.767036)"><g><path d="M 36.078125 0 L 4.796875 0 L 4.796875 -96.828125 L 36.078125 -96.828125 C 42.660156 -96.828125 48.832031 -95.566406 54.59375 -93.046875 C 60.351562 -90.535156 65.445312 -87.0625 69.875 -82.625 C 74.3125 -78.195312 77.785156 -73.054688 80.296875 -67.203125 C 82.816406 -61.347656 84.078125 -55.039062 84.078125 -48.28125 C 84.078125 -41.601562 82.816406 -35.335938 80.296875 -29.484375 C 77.785156 -23.628906 74.3125 -18.484375 69.875 -14.046875 C 65.445312 -9.617188 60.351562 -6.171875 54.59375 -3.703125 C 48.832031 -1.234375 42.660156 0 36.078125 0 Z M 15.5 -95.875 L 15.5 -1.09375 L 36.078125 -1.09375 C 41.285156 -1.09375 46.175781 -2.300781 50.75 -4.71875 C 55.320312 -7.144531 59.34375 -10.53125 62.8125 -14.875 C 66.289062 -19.21875 69.007812 -24.222656 70.96875 -29.890625 C 72.9375 -35.566406 73.921875 -41.695312 73.921875 -48.28125 C 73.921875 -54.863281 72.9375 -61.007812 70.96875 -66.71875 C 69.007812 -72.4375 66.289062 -77.488281 62.8125 -81.875 C 59.34375 -86.269531 55.320312 -89.703125 50.75 -92.171875 C 46.175781 -94.640625 41.285156 -95.875 36.078125 -95.875 Z M 15.5 -95.875 "/></g></g></g><path stroke-linecap="butt" transform="matrix(0.75, 0, 0, 0.75, 153.796005, 175.572514)" fill="none" stroke-linejoin="miter" d="M 14.63137 37.241859 C 15.469911 37.679359 16.407411 38.194984 17.438661 38.783525 C 18.480328 39.36165 19.47512 40.059567 20.423037 40.882484 C 21.376162 41.700192 22.173037 42.694984 22.813662 43.861651 C 23.459495 45.033526 23.777203 46.424151 23.777203 48.038734 C 23.777203 50.33561 23.183453 52.288735 21.985537 53.892901 C 20.803245 55.497068 19.313662 56.721027 17.521995 57.559568 C 15.735536 58.39811 13.91262 58.814777 12.048036 58.814777 C 10.443869 58.814777 9.120953 58.632485 8.079286 58.267902 C 7.032411 57.908527 6.173036 57.549152 5.495952 57.184568 C 4.829286 56.819985 4.240744 56.637693 3.730327 56.637693 C 3.214702 56.637693 2.798035 56.783527 2.485535 57.075193 C 2.183452 57.361652 1.959494 57.668943 1.803244 58.002277 L -0.0509231 58.002277 L 0.600119 49.892901 L 2.03241 49.892901 C 2.610535 49.892901 2.975119 50.314776 3.115744 51.153318 C 3.412619 52.721026 4.251161 54.028318 5.641786 55.069985 C 7.032411 56.11686 8.657411 56.637693 10.511578 56.637693 C 11.865744 56.637693 13.042828 56.330402 14.042828 55.726235 C 15.048036 55.122068 15.844911 54.309568 16.423036 53.293943 C 17.011578 52.267901 17.308453 51.168943 17.308453 50.002276 C 17.308453 48.361651 16.719911 47.028318 15.553245 46.002276 C 14.386578 44.976234 12.943869 44.012692 11.235536 43.101234 C 9.881369 42.403317 8.589702 41.611651 7.370952 40.721026 C 6.146994 39.819984 5.146994 38.731442 4.360536 37.4554 C 3.574077 36.184567 3.183452 34.632484 3.183452 32.804358 C 3.183452 30.976233 3.662619 29.3304 4.626161 27.866858 C 5.600119 26.408525 6.938661 25.247066 8.652203 24.3929 C 10.376161 23.533524 12.350119 23.106441 14.579286 23.106441 C 15.886578 23.106441 16.928245 23.210608 17.69387 23.413733 C 18.459495 23.611649 19.089703 23.819983 19.579287 24.043941 C 20.079287 24.257483 20.511578 24.366858 20.876162 24.366858 C 21.563662 24.366858 22.016787 24.033524 22.240745 23.372066 L 23.990745 23.372066 L 23.339703 30.997067 L 22.292828 30.997067 C 21.714703 30.997067 21.298037 30.538733 21.03762 29.622067 C 20.636578 28.122066 19.886578 26.997066 18.792828 26.252275 C 17.69387 25.502275 16.449078 25.127275 15.058453 25.127275 C 13.126161 25.127275 11.626161 25.684566 10.563661 26.79915 C 9.511578 27.913733 8.985536 29.221025 8.985536 30.715817 C 8.985536 32.002275 9.459494 33.153317 10.407411 34.179358 C 11.360536 35.194984 12.766786 36.215817 14.63137 37.241859 Z M 55.110539 54.267901 C 54.990747 54.965818 55.204289 55.424152 55.751164 55.64811 C 56.303247 55.861652 57.256372 56.043943 58.610539 56.194985 L 58.329289 58.002277 C 53.766789 57.819985 49.131372 57.819985 44.423038 58.002277 L 44.704288 56.194985 C 46.120955 56.043943 47.131372 55.814777 47.725122 55.512693 C 48.334497 55.200193 48.678247 54.694985 48.756372 54.002276 L 52.475122 27.7054 C 52.579289 27.012691 52.370955 26.559566 51.844914 26.346025 C 51.318872 26.122066 50.360539 25.939775 48.969913 25.793941 L 49.303247 23.976233 C 53.907414 24.163733 58.521997 24.163733 63.157414 23.976233 L 62.933456 25.793941 C 61.516789 25.939775 60.495956 26.163733 59.870956 26.476233 C 59.245956 26.788733 58.896997 27.288733 58.824081 27.976233 Z M 100.620959 41.846026 C 102.777209 41.913734 104.954292 41.939776 107.147001 41.924151 C 109.339709 41.908526 111.527209 41.861651 113.714709 41.788734 L 113.501168 43.648109 L 112.402209 43.809567 C 111.860543 43.918942 111.412626 44.137692 111.063668 44.465817 C 110.719918 44.793943 110.449084 45.361651 110.261584 46.163734 C 109.980334 47.590818 109.725126 49.043943 109.501167 50.52311 C 109.277209 52.002276 109.110542 53.512693 109.006376 55.043943 L 109.605334 55.153318 C 109.865751 55.184568 110.074084 55.288735 110.235543 55.46061 C 110.407418 55.61686 110.454293 55.809568 110.381376 56.033527 L 110.157417 57.184568 C 109.719917 57.137693 109.282417 57.106443 108.844917 57.090818 C 108.407417 57.075193 107.949084 57.064777 107.469917 57.064777 C 106.193876 57.064777 105.115751 57.14811 104.230334 57.319985 C 103.355334 57.476235 102.537625 57.67936 101.772 57.918943 C 101.006375 58.153318 100.167834 58.346027 99.256375 58.507485 C 98.344917 58.67936 97.214708 58.762693 95.860542 58.762693 C 92.897 58.762693 90.36575 58.002277 88.261583 56.486652 C 86.167833 54.971027 84.662624 52.846026 83.740749 50.111651 C 82.834499 47.372068 82.636582 44.137692 83.152207 40.413734 C 83.626166 36.981442 84.699082 33.971025 86.376166 31.387692 C 88.063666 28.788733 90.11575 26.762691 92.542833 25.29915 C 94.975125 23.840816 97.579292 23.106441 100.355334 23.106441 C 101.626167 23.106441 102.657417 23.210608 103.443875 23.413733 C 104.225125 23.611649 104.975125 23.809566 105.688667 24.017899 C 106.402209 24.210608 107.235542 24.309566 108.188667 24.309566 C 108.522001 24.309566 108.829292 24.304358 109.110542 24.283525 C 109.407417 24.267899 109.829292 24.241858 110.381376 24.205399 C 110.417834 25.773108 110.506376 27.325191 110.652209 28.856441 C 110.792834 30.3929 111.105334 31.976233 111.589709 33.616858 L 108.459501 33.351233 C 107.761584 30.793942 106.709501 28.793941 105.303251 27.36165 C 103.902209 25.913733 102.068875 25.194983 99.80325 25.194983 C 97.683458 25.194983 95.699083 26.335608 93.855333 28.616858 C 92.016791 30.8929 90.730333 34.512692 90.001166 39.491859 C 89.563666 42.590817 89.527208 45.450193 89.897 48.064776 C 90.261583 50.668943 90.985541 52.757485 92.074083 54.33561 C 93.173041 55.903318 94.600125 56.689777 96.355333 56.689777 C 98.5845 56.689777 100.225125 56.262693 101.277209 55.403318 C 102.3345 54.538735 103.016792 53.106443 103.308459 51.101235 L 104.136584 45.668943 C 104.245959 44.981443 104.141792 44.507484 103.829292 44.252276 C 103.516792 43.991859 102.907417 43.830401 101.995959 43.757484 L 100.407417 43.648109 Z M 157.813671 23.976233 C 162.053254 24.163733 166.303255 24.163733 170.574088 23.976233 L 170.469921 25.793941 C 168.782421 25.939775 167.438671 26.163733 166.428255 26.476233 C 165.428254 26.788733 164.876171 27.288733 164.772004 27.976233 L 160.542837 58.002277 L 158.683462 58.002277 L 144.829295 29.9554 L 141.324086 54.267901 C 141.256378 54.965818 141.65742 55.413735 142.527211 55.61686 C 143.402211 55.814777 144.662628 56.007485 146.31367 56.194985 L 146.193878 58.002277 C 142.03242 57.819985 137.792836 57.819985 133.490752 58.002277 L 133.594919 56.194985 C 135.318877 56.007485 136.667836 55.77311 137.647003 55.486652 C 138.636586 55.189777 139.183461 54.694985 139.292836 54.002276 L 142.917836 28.257483 C 143.09492 26.903316 141.761586 26.0804 138.917836 25.793941 L 139.027211 23.976233 C 142.423045 24.127274 145.818878 24.127274 149.214712 23.976233 L 160.063671 46.059568 L 162.683463 27.7054 C 162.756379 27.012691 162.365754 26.559566 161.506379 26.346025 C 160.652212 26.122066 159.402212 25.939775 157.761587 25.793941 Z M 157.813671 23.976233 " stroke="#000000" stroke-width="4.109235" stroke-opacity="1" stroke-miterlimit="4"/><g fill="#beaa8e" fill-opacity="1"><g transform="translate(153.796005, 219.072511)"><g><path d="M 10.96875 -15.5625 C 11.59375 -15.238281 12.296875 -14.859375 13.078125 -14.421875 C 13.859375 -13.984375 14.601562 -13.453125 15.3125 -12.828125 C 16.03125 -12.210938 16.628906 -11.46875 17.109375 -10.59375 C 17.585938 -9.71875 17.828125 -8.675781 17.828125 -7.46875 C 17.828125 -5.75 17.378906 -4.285156 16.484375 -3.078125 C 15.597656 -1.867188 14.484375 -0.953125 13.140625 -0.328125 C 11.796875 0.296875 10.425781 0.609375 9.03125 0.609375 C 7.832031 0.609375 6.84375 0.472656 6.0625 0.203125 C 5.28125 -0.0664062 4.632812 -0.335938 4.125 -0.609375 C 3.625 -0.890625 3.179688 -1.03125 2.796875 -1.03125 C 2.410156 -1.03125 2.097656 -0.921875 1.859375 -0.703125 C 1.628906 -0.484375 1.460938 -0.25 1.359375 0 L -0.046875 0 L 0.453125 -6.078125 L 1.515625 -6.078125 C 1.953125 -6.078125 2.226562 -5.765625 2.34375 -5.140625 C 2.5625 -3.960938 3.191406 -2.984375 4.234375 -2.203125 C 5.273438 -1.421875 6.492188 -1.03125 7.890625 -1.03125 C 8.898438 -1.03125 9.78125 -1.253906 10.53125 -1.703125 C 11.289062 -2.148438 11.890625 -2.757812 12.328125 -3.53125 C 12.765625 -4.300781 12.984375 -5.125 12.984375 -6 C 12.984375 -7.226562 12.546875 -8.222656 11.671875 -8.984375 C 10.796875 -9.753906 9.710938 -10.484375 8.421875 -11.171875 C 7.410156 -11.691406 6.445312 -12.285156 5.53125 -12.953125 C 4.613281 -13.628906 3.859375 -14.445312 3.265625 -15.40625 C 2.671875 -16.363281 2.375 -17.523438 2.375 -18.890625 C 2.375 -20.265625 2.738281 -21.5 3.46875 -22.59375 C 4.195312 -23.6875 5.203125 -24.554688 6.484375 -25.203125 C 7.773438 -25.847656 9.253906 -26.171875 10.921875 -26.171875 C 11.910156 -26.171875 12.691406 -26.09375 13.265625 -25.9375 C 13.835938 -25.789062 14.304688 -25.632812 14.671875 -25.46875 C 15.046875 -25.300781 15.375 -25.21875 15.65625 -25.21875 C 16.175781 -25.21875 16.515625 -25.46875 16.671875 -25.96875 L 18 -25.96875 L 17.5 -20.25 L 16.71875 -20.25 C 16.28125 -20.25 15.96875 -20.59375 15.78125 -21.28125 C 15.476562 -22.40625 14.914062 -23.242188 14.09375 -23.796875 C 13.269531 -24.359375 12.335938 -24.640625 11.296875 -24.640625 C 9.847656 -24.640625 8.722656 -24.222656 7.921875 -23.390625 C 7.128906 -22.554688 6.734375 -21.578125 6.734375 -20.453125 C 6.734375 -19.492188 7.085938 -18.628906 7.796875 -17.859375 C 8.515625 -17.097656 9.570312 -16.332031 10.96875 -15.5625 Z M 10.96875 -15.5625 "/></g></g></g><g fill="#beaa8e" fill-opacity="1"><g transform="translate(187.524331, 219.072511)"><g><path d="M 7.59375 -2.796875 C 7.507812 -2.273438 7.671875 -1.929688 8.078125 -1.765625 C 8.492188 -1.597656 9.210938 -1.460938 10.234375 -1.359375 L 10.015625 0 C 6.597656 -0.132812 3.125 -0.132812 -0.40625 0 L -0.203125 -1.359375 C 0.859375 -1.460938 1.613281 -1.628906 2.0625 -1.859375 C 2.519531 -2.097656 2.773438 -2.476562 2.828125 -3 L 5.625 -22.71875 C 5.707031 -23.238281 5.550781 -23.578125 5.15625 -23.734375 C 4.757812 -23.898438 4.039062 -24.039062 3 -24.15625 L 3.25 -25.515625 C 6.695312 -25.367188 10.160156 -25.367188 13.640625 -25.515625 L 13.46875 -24.15625 C 12.40625 -24.039062 11.640625 -23.867188 11.171875 -23.640625 C 10.703125 -23.410156 10.441406 -23.035156 10.390625 -22.515625 Z M 7.59375 -2.796875 "/></g></g></g><g fill="#beaa8e" fill-opacity="1"><g transform="translate(214.51647, 219.072511)"><g><path d="M 14.75 -12.125 C 16.363281 -12.0625 17.988281 -12.035156 19.625 -12.046875 C 21.269531 -12.066406 22.914062 -12.101562 24.5625 -12.15625 L 24.40625 -10.765625 L 23.578125 -10.640625 C 23.171875 -10.554688 22.835938 -10.390625 22.578125 -10.140625 C 22.316406 -9.898438 22.117188 -9.476562 21.984375 -8.875 C 21.753906 -7.800781 21.554688 -6.707031 21.390625 -5.59375 C 21.234375 -4.488281 21.113281 -3.363281 21.03125 -2.21875 L 21.484375 -2.140625 C 21.671875 -2.109375 21.828125 -2.03125 21.953125 -1.90625 C 22.078125 -1.78125 22.113281 -1.640625 22.0625 -1.484375 L 21.890625 -0.609375 C 21.566406 -0.640625 21.238281 -0.660156 20.90625 -0.671875 C 20.582031 -0.691406 20.238281 -0.703125 19.875 -0.703125 C 18.914062 -0.703125 18.109375 -0.640625 17.453125 -0.515625 C 16.796875 -0.390625 16.179688 -0.238281 15.609375 -0.0625 C 15.035156 0.113281 14.40625 0.265625 13.71875 0.390625 C 13.03125 0.515625 12.179688 0.578125 11.171875 0.578125 C 8.953125 0.578125 7.054688 0.0078125 5.484375 -1.125 C 3.910156 -2.257812 2.78125 -3.851562 2.09375 -5.90625 C 1.40625 -7.96875 1.253906 -10.394531 1.640625 -13.1875 C 1.992188 -15.757812 2.800781 -18.015625 4.0625 -19.953125 C 5.320312 -21.898438 6.863281 -23.421875 8.6875 -24.515625 C 10.507812 -25.617188 12.460938 -26.171875 14.546875 -26.171875 C 15.503906 -26.171875 16.273438 -26.09375 16.859375 -25.9375 C 17.453125 -25.789062 18.015625 -25.640625 18.546875 -25.484375 C 19.078125 -25.335938 19.703125 -25.265625 20.421875 -25.265625 C 20.660156 -25.265625 20.890625 -25.269531 21.109375 -25.28125 C 21.328125 -25.289062 21.644531 -25.3125 22.0625 -25.34375 C 22.082031 -24.164062 22.144531 -23 22.25 -21.84375 C 22.363281 -20.695312 22.601562 -19.507812 22.96875 -18.28125 L 20.625 -18.484375 C 20.101562 -20.398438 19.3125 -21.898438 18.25 -22.984375 C 17.195312 -24.066406 15.820312 -24.609375 14.125 -24.609375 C 12.539062 -24.609375 11.054688 -23.75 9.671875 -22.03125 C 8.285156 -20.320312 7.320312 -17.609375 6.78125 -13.890625 C 6.445312 -11.554688 6.414062 -9.410156 6.6875 -7.453125 C 6.96875 -5.492188 7.519531 -3.925781 8.34375 -2.75 C 9.164062 -1.570312 10.234375 -0.984375 11.546875 -0.984375 C 13.210938 -0.984375 14.441406 -1.304688 15.234375 -1.953125 C 16.035156 -2.597656 16.546875 -3.671875 16.765625 -5.171875 L 17.375 -9.25 C 17.457031 -9.757812 17.378906 -10.109375 17.140625 -10.296875 C 16.910156 -10.492188 16.457031 -10.625 15.78125 -10.6875 L 14.578125 -10.765625 Z M 14.75 -12.125 "/></g></g></g><g fill="#beaa8e" fill-opacity="1"><g transform="translate(254.323785, 219.072511)"><g><path d="M 17.828125 -25.515625 C 21.003906 -25.367188 24.195312 -25.367188 27.40625 -25.515625 L 27.3125 -24.15625 C 26.050781 -24.039062 25.046875 -23.867188 24.296875 -23.640625 C 23.546875 -23.410156 23.128906 -23.035156 23.046875 -22.515625 L 19.875 0 L 18.484375 0 L 8.09375 -21.03125 L 5.46875 -2.796875 C 5.40625 -2.273438 5.703125 -1.9375 6.359375 -1.78125 C 7.023438 -1.632812 7.972656 -1.492188 9.203125 -1.359375 L 9.125 0 C 6 -0.132812 2.820312 -0.132812 -0.40625 0 L -0.328125 -1.359375 C 0.960938 -1.492188 1.972656 -1.671875 2.703125 -1.890625 C 3.441406 -2.109375 3.851562 -2.476562 3.9375 -3 L 6.65625 -22.3125 C 6.789062 -23.320312 5.789062 -23.9375 3.65625 -24.15625 L 3.734375 -25.515625 C 6.285156 -25.398438 8.832031 -25.398438 11.375 -25.515625 L 19.515625 -8.953125 L 21.484375 -22.71875 C 21.535156 -23.238281 21.238281 -23.578125 20.59375 -23.734375 C 19.957031 -23.898438 19.019531 -24.039062 17.78125 -24.15625 Z M 17.828125 -25.515625 "/></g></g></g><g fill="#beaa8e" fill-opacity="1"><g transform="translate(295.124121, 219.072511)"><g/></g></g><path stroke-linecap="butt" transform="matrix(0.75, 0, 0, 0.75, 56.819086, 136.198263)" fill="none" stroke-linejoin="miter" d="M 69.538098 156.308576 C 60.637055 156.308576 52.522472 154.022118 45.194346 149.443992 C 37.871429 144.860659 31.564137 138.345033 26.282887 129.891908 C 21.001636 121.412741 16.944344 111.308573 14.111011 99.574197 C 11.282886 87.839822 9.866219 74.782529 9.866219 60.407528 C 9.866219 46.011694 11.282886 32.923151 14.111011 21.147109 C 16.944344 9.371067 21.001636 -0.722684 26.282887 -9.139351 C 31.564137 -17.571644 37.871429 -24.076852 45.194346 -28.654978 C 52.522472 -33.233103 60.637055 -35.52477 69.538098 -35.52477 C 78.418307 -35.52477 86.522474 -33.233103 93.850599 -28.654978 C 101.199558 -24.076852 107.480809 -17.571644 112.699559 -9.139351 C 117.939143 -0.722684 121.970393 9.371067 124.803726 21.147109 C 127.63706 32.923151 129.053727 46.011694 129.053727 60.407528 C 129.053727 74.782529 127.63706 87.839822 124.803726 99.574197 C 121.970393 111.308573 117.939143 121.412741 112.699559 129.891908 C 107.480809 138.345033 101.199558 144.860659 93.850599 149.443992 C 86.522474 154.022118 78.418307 156.308576 69.538098 156.308576 Z M 24.24122 60.407528 C 24.24122 74.188779 25.444345 86.772113 27.850595 98.167947 C 30.256845 109.542948 33.548512 119.371074 37.720387 127.652324 C 41.918304 135.938783 46.741221 142.350242 52.194347 146.886701 C 57.642264 151.423159 63.428722 153.688784 69.538098 153.688784 C 75.631848 153.688784 81.381849 151.423159 86.788099 146.886701 C 92.199558 142.350242 96.991225 135.938783 101.1631 127.652324 C 105.361017 119.371074 108.6631 109.542948 111.06935 98.167947 C 113.475601 86.772113 114.678726 74.188779 114.678726 60.407528 C 114.678726 46.605444 113.475601 34.02211 111.06935 22.647109 C 108.6631 11.256483 105.361017 1.438774 101.1631 -6.806018 C 96.991225 -15.045602 92.199558 -21.415394 86.788099 -25.910186 C 81.381849 -30.404978 75.631848 -32.64977 69.538098 -32.64977 C 63.428722 -32.64977 57.642264 -30.404978 52.194347 -25.910186 C 46.741221 -21.415394 41.918304 -15.045602 37.720387 -6.806018 C 33.548512 1.438774 30.256845 11.256483 27.850595 22.647109 C 25.444345 34.02211 24.24122 46.605444 24.24122 60.407528 Z M 24.24122 60.407528 " stroke="#000000" stroke-width="9.813825" stroke-opacity="1" stroke-miterlimit="4"/><g fill="#beaa8e" fill-opacity="1"><g transform="translate(60.287836, 252.448255)"><g><path d="M 48.671875 0.984375 C 42.003906 0.984375 35.921875 -0.734375 30.421875 -4.171875 C 24.929688 -7.609375 20.207031 -12.5 16.25 -18.84375 C 12.289062 -25.1875 9.242188 -32.757812 7.109375 -41.5625 C 4.984375 -50.363281 3.921875 -60.160156 3.921875 -70.953125 C 3.921875 -81.753906 4.984375 -91.566406 7.109375 -100.390625 C 9.242188 -109.222656 12.289062 -116.796875 16.25 -123.109375 C 20.207031 -129.429688 24.929688 -134.304688 30.421875 -137.734375 C 35.921875 -141.171875 42.003906 -142.890625 48.671875 -142.890625 C 55.347656 -142.890625 61.429688 -141.171875 66.921875 -137.734375 C 72.421875 -134.304688 77.132812 -129.429688 81.0625 -123.109375 C 84.988281 -116.796875 88.015625 -109.222656 90.140625 -100.390625 C 92.265625 -91.566406 93.328125 -81.753906 93.328125 -70.953125 C 93.328125 -60.160156 92.265625 -50.363281 90.140625 -41.5625 C 88.015625 -32.757812 84.988281 -25.1875 81.0625 -18.84375 C 77.132812 -12.5 72.421875 -7.609375 66.921875 -4.171875 C 61.429688 -0.734375 55.347656 0.984375 48.671875 0.984375 Z M 14.71875 -70.953125 C 14.71875 -60.617188 15.617188 -51.179688 17.421875 -42.640625 C 19.222656 -34.097656 21.691406 -26.71875 24.828125 -20.5 C 27.972656 -14.289062 31.585938 -9.484375 35.671875 -6.078125 C 39.765625 -2.679688 44.097656 -0.984375 48.671875 -0.984375 C 53.253906 -0.984375 57.570312 -2.679688 61.625 -6.078125 C 65.6875 -9.484375 69.285156 -14.289062 72.421875 -20.5 C 75.566406 -26.71875 78.035156 -34.097656 79.828125 -42.640625 C 81.628906 -51.179688 82.53125 -60.617188 82.53125 -70.953125 C 82.53125 -81.296875 81.628906 -90.734375 79.828125 -99.265625 C 78.035156 -107.804688 75.566406 -115.164062 72.421875 -121.34375 C 69.285156 -127.53125 65.6875 -132.304688 61.625 -135.671875 C 57.570312 -139.046875 53.253906 -140.734375 48.671875 -140.734375 C 44.097656 -140.734375 39.765625 -139.046875 35.671875 -135.671875 C 31.585938 -132.304688 27.972656 -127.53125 24.828125 -121.34375 C 21.691406 -115.164062 19.222656 -107.804688 17.421875 -99.265625 C 15.617188 -90.734375 14.71875 -81.296875 14.71875 -70.953125 Z M 14.71875 -70.953125 "/></g></g></g></svg>