<svg xmlns="http://www.w3.org/2000/svg" xmlns:xlink="http://www.w3.org/1999/xlink" width="500" zoomAndPan="magnify" viewBox="0 0 375 374.999991" height="500" preserveAspectRatio="xMidYMid meet" version="1.0"><defs><g/><clipPath id="712a08091d"><path d="M 241.210938 145.574219 L 274.152344 145.574219 L 274.152344 194.273438 L 241.210938 194.273438 Z M 241.210938 145.574219 " clip-rule="nonzero"/></clipPath></defs><g fill="#ffffff" fill-opacity="1"><g transform="translate(40.403263, 247.482569)"><g><path d="M 63.625 -148.09375 C 73.550781 -150.925781 83.40625 -151.632812 93.1875 -150.21875 C 102.976562 -148.800781 112.09375 -145.609375 120.53125 -140.640625 C 128.976562 -135.679688 136.25 -129.226562 142.34375 -121.28125 C 148.445312 -113.34375 152.773438 -104.335938 155.328125 -94.265625 C 158.160156 -84.335938 158.90625 -74.476562 157.5625 -64.6875 C 156.21875 -54.894531 153.097656 -45.742188 148.203125 -37.234375 C 143.304688 -28.722656 136.921875 -21.378906 129.046875 -15.203125 C 121.179688 -9.035156 112.210938 -4.609375 102.140625 -1.921875 C 92.203125 0.921875 82.335938 1.664062 72.546875 0.3125 C 62.765625 -1.03125 53.65625 -4.179688 45.21875 -9.140625 C 36.78125 -14.109375 29.507812 -20.53125 23.40625 -28.40625 C 17.300781 -36.28125 12.832031 -45.320312 10 -55.53125 C 7.300781 -65.601562 6.695312 -75.566406 8.1875 -85.421875 C 9.675781 -95.285156 12.867188 -104.4375 17.765625 -112.875 C 22.660156 -121.320312 29.007812 -128.628906 36.8125 -134.796875 C 44.613281 -140.960938 53.550781 -145.394531 63.625 -148.09375 Z M 63.828125 -146.390625 C 54.753906 -144.117188 47.34375 -139.898438 41.59375 -133.734375 C 35.851562 -127.566406 31.5625 -120.296875 28.71875 -111.921875 C 25.882812 -103.554688 24.394531 -94.832031 24.25 -85.75 C 24.113281 -76.675781 25.109375 -68.09375 27.234375 -60 C 29.359375 -51.914062 32.726562 -44.039062 37.34375 -36.375 C 41.957031 -28.71875 47.5625 -21.945312 54.15625 -16.0625 C 60.75 -10.175781 68.085938 -5.988281 76.171875 -3.5 C 84.253906 -1.019531 92.765625 -0.988281 101.703125 -3.40625 C 110.785156 -5.8125 118.234375 -10.097656 124.046875 -16.265625 C 129.867188 -22.441406 134.195312 -29.710938 137.03125 -38.078125 C 139.863281 -46.453125 141.421875 -55.175781 141.703125 -64.25 C 141.992188 -73.332031 141.078125 -81.914062 138.953125 -90 C 136.816406 -98.226562 133.40625 -106.207031 128.71875 -113.9375 C 124.039062 -121.675781 118.40625 -128.453125 111.8125 -134.265625 C 105.21875 -140.078125 97.878906 -144.1875 89.796875 -146.59375 C 81.710938 -149.007812 73.054688 -148.941406 63.828125 -146.390625 Z M 63.828125 -146.390625 "/></g></g></g><g fill="#ffffff" fill-opacity="1"><g transform="translate(122.732888, 241.482567)"><g><path d="M 50.09375 0 L 6.671875 0 L 6.671875 -134.46875 L 50.09375 -134.46875 C 59.238281 -134.46875 67.8125 -132.722656 75.8125 -129.234375 C 83.8125 -125.742188 90.890625 -120.914062 97.046875 -114.75 C 103.203125 -108.59375 108.023438 -101.453125 111.515625 -93.328125 C 115.003906 -85.203125 116.75 -76.441406 116.75 -67.046875 C 116.75 -57.773438 115.003906 -49.078125 111.515625 -40.953125 C 108.023438 -32.828125 103.203125 -25.679688 97.046875 -19.515625 C 90.890625 -13.359375 83.8125 -8.566406 75.8125 -5.140625 C 67.8125 -1.710938 59.238281 0 50.09375 0 Z M 21.515625 -133.140625 L 21.515625 -1.53125 L 50.09375 -1.53125 C 57.332031 -1.53125 64.125 -3.210938 70.46875 -6.578125 C 76.820312 -9.941406 82.410156 -14.640625 87.234375 -20.671875 C 92.054688 -26.703125 95.832031 -33.648438 98.5625 -41.515625 C 101.289062 -49.390625 102.65625 -57.898438 102.65625 -67.046875 C 102.65625 -76.191406 101.289062 -84.726562 98.5625 -92.65625 C 95.832031 -100.59375 92.054688 -107.609375 87.234375 -113.703125 C 82.410156 -119.804688 76.820312 -124.570312 70.46875 -128 C 64.125 -131.425781 57.332031 -133.140625 50.09375 -133.140625 Z M 21.515625 -133.140625 "/></g></g></g><g fill="#ffffff" fill-opacity="1"><g transform="translate(193.031418, 217.569684)"><g><path d="M 8.875 -12.609375 C 9.382812 -12.335938 9.957031 -12.023438 10.59375 -11.671875 C 11.226562 -11.316406 11.832031 -10.890625 12.40625 -10.390625 C 12.976562 -9.890625 13.457031 -9.285156 13.84375 -8.578125 C 14.238281 -7.867188 14.4375 -7.023438 14.4375 -6.046875 C 14.4375 -4.648438 14.078125 -3.460938 13.359375 -2.484375 C 12.640625 -1.515625 11.734375 -0.773438 10.640625 -0.265625 C 9.554688 0.242188 8.445312 0.5 7.3125 0.5 C 6.34375 0.5 5.539062 0.382812 4.90625 0.15625 C 4.269531 -0.0625 3.75 -0.28125 3.34375 -0.5 C 2.9375 -0.71875 2.578125 -0.828125 2.265625 -0.828125 C 1.953125 -0.828125 1.703125 -0.738281 1.515625 -0.5625 C 1.328125 -0.382812 1.1875 -0.195312 1.09375 0 L -0.03125 0 L 0.359375 -4.921875 L 1.234375 -4.921875 C 1.585938 -4.921875 1.804688 -4.664062 1.890625 -4.15625 C 2.066406 -3.207031 2.578125 -2.414062 3.421875 -1.78125 C 4.265625 -1.144531 5.253906 -0.828125 6.390625 -0.828125 C 7.210938 -0.828125 7.925781 -1.007812 8.53125 -1.375 C 9.144531 -1.738281 9.628906 -2.234375 9.984375 -2.859375 C 10.335938 -3.484375 10.515625 -4.148438 10.515625 -4.859375 C 10.515625 -5.859375 10.160156 -6.664062 9.453125 -7.28125 C 8.742188 -7.90625 7.863281 -8.492188 6.8125 -9.046875 C 6 -9.472656 5.21875 -9.957031 4.46875 -10.5 C 3.726562 -11.039062 3.117188 -11.695312 2.640625 -12.46875 C 2.160156 -13.25 1.921875 -14.191406 1.921875 -15.296875 C 1.921875 -16.410156 2.210938 -17.410156 2.796875 -18.296875 C 3.390625 -19.179688 4.207031 -19.882812 5.25 -20.40625 C 6.289062 -20.925781 7.488281 -21.1875 8.84375 -21.1875 C 9.644531 -21.1875 10.273438 -21.125 10.734375 -21 C 11.203125 -20.882812 11.585938 -20.757812 11.890625 -20.625 C 12.191406 -20.488281 12.453125 -20.421875 12.671875 -20.421875 C 13.097656 -20.421875 13.375 -20.625 13.5 -21.03125 L 14.578125 -21.03125 L 14.171875 -16.40625 L 13.546875 -16.40625 C 13.179688 -16.40625 12.925781 -16.679688 12.78125 -17.234375 C 12.53125 -18.140625 12.070312 -18.816406 11.40625 -19.265625 C 10.738281 -19.722656 9.984375 -19.953125 9.140625 -19.953125 C 7.972656 -19.953125 7.066406 -19.613281 6.421875 -18.9375 C 5.773438 -18.269531 5.453125 -17.476562 5.453125 -16.5625 C 5.453125 -15.789062 5.738281 -15.09375 6.3125 -14.46875 C 6.894531 -13.851562 7.75 -13.234375 8.875 -12.609375 Z M 8.875 -12.609375 "/></g></g></g><g fill="#ffffff" fill-opacity="1"><g transform="translate(228.410322, 217.569684)"><g/></g></g><g clip-path="url(#712a08091d)"><path fill="#ffffff" d="M 242.183594 191.863281 C 240.78125 170.113281 247.777344 166.160156 255.175781 161.984375 C 256.351562 161.320312 257.535156 160.652344 258.703125 159.910156 C 257.089844 160.832031 255.457031 161.570312 253.882812 162.28125 C 245.839844 165.921875 238.882812 169.066406 242.183594 191.863281 Z M 242.40625 192.078125 C 242.863281 171.367188 249.480469 166.757812 256.480469 161.878906 C 257.75 160.996094 259.035156 160.097656 260.289062 159.097656 C 258.652344 160.261719 256.957031 161.21875 255.28125 162.167969 C 251.5 164.296875 247.9375 166.3125 245.476562 170.542969 C 242.714844 175.277344 241.738281 182.125 242.40625 192.078125 Z M 257.675781 161.832031 C 259.121094 160.597656 260.542969 159.382812 261.894531 158.019531 C 260.179688 159.566406 258.382812 160.820312 256.605469 162.054688 C 249.628906 166.914062 243.050781 171.503906 242.617188 192.21875 C 244.96875 172.710938 251.421875 167.183594 257.675781 161.832031 Z M 258.703125 161.96875 C 260.175781 160.421875 261.621094 158.90625 262.992188 157.214844 C 261.359375 158.988281 259.613281 160.480469 257.824219 162.007812 C 251.589844 167.339844 245.144531 172.859375 242.824219 192.421875 C 247.007812 174.253906 253.222656 167.726562 258.703125 161.96875 Z M 259.371094 162.660156 C 261.074219 160.460938 262.671875 158.398438 264.148438 156.125 C 262.5 158.339844 260.714844 160.214844 258.882812 162.136719 C 253.417969 167.875 247.226562 174.378906 243.050781 192.519531 C 248.871094 176.191406 254.453125 169 259.371094 162.660156 Z M 258.589844 165.9375 C 261.09375 162.039062 263.191406 158.753906 265.050781 155.167969 C 263.386719 157.894531 261.554688 160.265625 259.578125 162.816406 C 254.660156 169.15625 249.085938 176.332031 243.273438 192.65625 C 249.714844 179.808594 254.636719 172.117188 258.589844 165.9375 Z M 265.773438 154.34375 C 263.792969 158.320312 261.542969 161.832031 258.828125 166.078125 C 254.867188 172.261719 249.941406 179.949219 243.503906 192.800781 C 256.445312 173.441406 261.734375 164.230469 265.773438 154.34375 Z M 266.496094 153.289062 C 262.390625 163.632812 257.214844 172.792969 243.792969 192.859375 C 259.683594 174.492188 263.46875 163.171875 266.496094 153.289062 Z M 266.761719 153.796875 C 266.847656 153.375 266.9375 152.960938 267.023438 152.550781 C 263.953125 162.636719 260.394531 174.085938 244.101562 192.949219 C 261.898438 176.714844 264.597656 164.011719 266.761719 153.796875 Z M 267.265625 153.773438 C 267.347656 153.082031 267.425781 152.410156 267.507812 151.761719 C 267.359375 152.449219 267.210938 153.148438 267.0625 153.855469 C 265 163.546875 262.195312 176.785156 244.464844 193.019531 C 264.332031 178.535156 266.101562 163.65625 267.265625 153.773438 Z M 267.859375 153.230469 C 267.878906 152.445312 267.898438 151.703125 267.925781 151 C 267.804688 151.890625 267.691406 152.828125 267.574219 153.808594 C 266.40625 163.695312 264.644531 178.558594 244.949219 193.054688 C 267.082031 180.042969 267.5625 163.285156 267.859375 153.230469 Z M 268.402344 152.375 C 268.359375 151.628906 268.320312 150.925781 268.289062 150.265625 C 268.238281 151.179688 268.210938 152.167969 268.179688 153.242188 C 267.894531 163.304688 267.410156 180.039062 245.496094 193.117188 C 270.078125 181.40625 268.988281 162.570312 268.402344 152.375 Z M 268.835938 151.257812 C 268.753906 150.683594 268.675781 150.148438 268.609375 149.644531 C 268.636719 150.46875 268.6875 151.375 268.742188 152.355469 C 269.332031 162.5625 270.414062 181.390625 246.078125 193.210938 C 273.332031 182.707031 270.304688 161.535156 268.835938 151.257812 Z M 269.097656 149.871094 C 269.015625 149.53125 268.945312 149.214844 268.875 148.914062 C 268.957031 149.605469 269.070312 150.378906 269.1875 151.210938 C 270.65625 161.496094 273.671875 182.625 246.808594 193.304688 C 276.949219 183.921875 271.46875 160.148438 269.097656 149.871094 Z M 268.980469 179.421875 C 275.550781 168.058594 270.9375 153.816406 269.109375 148.285156 C 269.210938 148.746094 269.324219 149.253906 269.449219 149.789062 C 270.652344 154.984375 272.664062 163.6875 270.320312 172.40625 C 267.660156 182.332031 260.019531 189.394531 247.59375 193.4375 C 257.910156 190.84375 265.101562 186.132812 268.980469 179.421875 Z M 271.222656 179.035156 C 277.03125 167.496094 271.621094 152.90625 269.316406 147.707031 C 269.347656 147.8125 269.382812 147.917969 269.417969 148.023438 C 271.222656 153.488281 276.015625 168 269.308594 179.613281 C 265.484375 186.230469 258.503906 190.925781 248.53125 193.585938 C 259.878906 191.304688 267.503906 186.421875 271.222656 179.035156 Z M 253.800781 162.105469 C 257.152344 160.589844 260.773438 158.949219 263.886719 155.679688 C 263.988281 155.570312 264.09375 155.457031 264.195312 155.339844 C 264.726562 154.714844 265.242188 154.039062 265.738281 153.304688 C 265.832031 153.160156 265.925781 153.015625 266.015625 152.863281 C 266.269531 152.433594 266.519531 151.988281 266.761719 151.527344 C 266.910156 151.222656 267.054688 150.914062 267.199219 150.601562 C 267.316406 150.324219 267.429688 150.039062 267.546875 149.757812 C 267.628906 149.53125 267.710938 149.300781 267.796875 149.070312 C 267.855469 148.886719 267.917969 148.699219 267.976562 148.515625 C 268.03125 148.308594 268.085938 148.097656 268.144531 147.894531 C 268.171875 147.765625 268.203125 147.636719 268.234375 147.511719 C 268.261719 147.355469 268.292969 147.207031 268.324219 147.054688 C 268.339844 146.910156 268.359375 146.773438 268.382812 146.636719 C 268.390625 146.511719 268.402344 146.390625 268.414062 146.28125 C 268.414062 146.179688 268.414062 146.089844 268.421875 146.003906 C 268.40625 145.914062 268.402344 145.839844 268.40625 145.78125 C 268.398438 145.769531 268.394531 145.761719 268.390625 145.757812 L 268.40625 145.746094 C 268.410156 145.722656 268.414062 145.699219 268.421875 145.675781 L 268.496094 145.699219 L 268.730469 145.574219 C 268.742188 145.601562 268.941406 145.976562 269.25 146.636719 L 269.253906 146.636719 C 269.253906 146.640625 269.253906 146.640625 269.253906 146.640625 C 269.261719 146.660156 269.273438 146.683594 269.28125 146.703125 L 269.292969 146.707031 C 269.292969 146.710938 269.292969 146.714844 269.289062 146.71875 C 269.296875 146.734375 269.304688 146.75 269.308594 146.761719 L 269.328125 146.769531 C 269.324219 146.773438 269.324219 146.78125 269.320312 146.789062 C 271.382812 151.21875 277.769531 166.90625 271.570312 179.210938 C 267.441406 187.414062 258.585938 192.578125 245.265625 194.550781 L 245.238281 194.371094 C 245.183594 194.382812 245.132812 194.394531 245.078125 194.40625 L 245.035156 194.207031 C 244.988281 194.21875 244.941406 194.234375 244.890625 194.25 L 244.839844 194.050781 C 244.796875 194.066406 244.753906 194.082031 244.710938 194.097656 L 244.632812 193.890625 C 244.597656 193.90625 244.5625 193.925781 244.527344 193.941406 L 244.429688 193.738281 C 244.402344 193.753906 244.371094 193.773438 244.34375 193.792969 L 244.226562 193.582031 C 244.203125 193.601562 244.179688 193.617188 244.15625 193.632812 L 244.015625 193.433594 C 244 193.445312 243.984375 193.460938 243.96875 193.472656 L 243.804688 193.292969 C 243.800781 193.300781 243.792969 193.304688 243.789062 193.3125 L 243.597656 193.152344 C 243.597656 193.152344 243.597656 193.15625 243.597656 193.15625 L 243.371094 193 C 243.375 192.992188 243.378906 192.988281 243.382812 192.984375 L 243.164062 192.875 C 243.171875 192.855469 243.179688 192.84375 243.1875 192.828125 L 242.96875 192.75 C 242.976562 192.722656 242.984375 192.699219 242.992188 192.671875 L 242.777344 192.621094 C 242.785156 192.585938 242.792969 192.554688 242.800781 192.519531 L 242.585938 192.496094 C 242.589844 192.453125 242.59375 192.410156 242.601562 192.363281 L 242.398438 192.359375 C 242.398438 192.3125 242.398438 192.261719 242.402344 192.214844 L 242.207031 192.230469 C 242.203125 192.175781 242.199219 192.121094 242.195312 192.066406 L 242.019531 192.09375 C 238.625 168.964844 245.660156 165.785156 253.800781 162.105469 " fill-opacity="1" fill-rule="nonzero"/></g><g fill="#ffffff" fill-opacity="1"><g transform="translate(236.060951, 217.569684)"><g><path d="M 6.15625 -2.265625 C 6.082031 -1.835938 6.210938 -1.554688 6.546875 -1.421875 C 6.878906 -1.296875 7.457031 -1.1875 8.28125 -1.09375 L 8.109375 0 C 5.335938 -0.113281 2.523438 -0.113281 -0.328125 0 L -0.171875 -1.09375 C 0.691406 -1.1875 1.304688 -1.328125 1.671875 -1.515625 C 2.046875 -1.703125 2.253906 -2.003906 2.296875 -2.421875 L 4.5625 -18.390625 C 4.625 -18.816406 4.492188 -19.09375 4.171875 -19.21875 C 3.847656 -19.351562 3.265625 -19.46875 2.421875 -19.5625 L 2.625 -20.65625 C 5.414062 -20.539062 8.222656 -20.539062 11.046875 -20.65625 L 10.90625 -19.5625 C 10.039062 -19.46875 9.421875 -19.328125 9.046875 -19.140625 C 8.671875 -18.953125 8.460938 -18.648438 8.421875 -18.234375 Z M 6.15625 -2.265625 "/></g></g></g><g fill="#ffffff" fill-opacity="1"><g transform="translate(265.972732, 217.569684)"><g><path d="M 11.9375 -9.8125 C 13.25 -9.769531 14.566406 -9.753906 15.890625 -9.765625 C 17.222656 -9.773438 18.554688 -9.800781 19.890625 -9.84375 L 19.765625 -8.71875 L 19.09375 -8.609375 C 18.757812 -8.546875 18.488281 -8.414062 18.28125 -8.21875 C 18.070312 -8.019531 17.910156 -7.675781 17.796875 -7.1875 C 17.617188 -6.320312 17.460938 -5.4375 17.328125 -4.53125 C 17.191406 -3.632812 17.09375 -2.722656 17.03125 -1.796875 L 17.390625 -1.734375 C 17.546875 -1.710938 17.675781 -1.648438 17.78125 -1.546875 C 17.882812 -1.441406 17.910156 -1.328125 17.859375 -1.203125 L 17.734375 -0.5 C 17.460938 -0.519531 17.191406 -0.535156 16.921875 -0.546875 C 16.660156 -0.554688 16.382812 -0.5625 16.09375 -0.5625 C 15.320312 -0.5625 14.671875 -0.507812 14.140625 -0.40625 C 13.609375 -0.3125 13.109375 -0.191406 12.640625 -0.046875 C 12.171875 0.0976562 11.660156 0.21875 11.109375 0.3125 C 10.554688 0.414062 9.867188 0.46875 9.046875 0.46875 C 7.253906 0.46875 5.71875 0.0078125 4.4375 -0.90625 C 3.164062 -1.832031 2.25 -3.125 1.6875 -4.78125 C 1.132812 -6.445312 1.015625 -8.410156 1.328125 -10.671875 C 1.617188 -12.765625 2.273438 -14.597656 3.296875 -16.171875 C 4.316406 -17.742188 5.5625 -18.972656 7.03125 -19.859375 C 8.507812 -20.742188 10.09375 -21.1875 11.78125 -21.1875 C 12.550781 -21.1875 13.175781 -21.125 13.65625 -21 C 14.132812 -20.882812 14.585938 -20.765625 15.015625 -20.640625 C 15.453125 -20.515625 15.957031 -20.453125 16.53125 -20.453125 C 16.726562 -20.453125 16.914062 -20.457031 17.09375 -20.46875 C 17.269531 -20.476562 17.523438 -20.5 17.859375 -20.53125 C 17.878906 -19.570312 17.929688 -18.625 18.015625 -17.6875 C 18.109375 -16.757812 18.300781 -15.796875 18.59375 -14.796875 L 16.703125 -14.96875 C 16.273438 -16.519531 15.632812 -17.734375 14.78125 -18.609375 C 13.925781 -19.484375 12.8125 -19.921875 11.4375 -19.921875 C 10.15625 -19.921875 8.953125 -19.226562 7.828125 -17.84375 C 6.710938 -16.457031 5.929688 -14.257812 5.484375 -11.25 C 5.222656 -9.363281 5.203125 -7.625 5.421875 -6.03125 C 5.640625 -4.445312 6.082031 -3.175781 6.75 -2.21875 C 7.414062 -1.269531 8.28125 -0.796875 9.34375 -0.796875 C 10.695312 -0.796875 11.695312 -1.054688 12.34375 -1.578125 C 12.988281 -2.097656 13.398438 -2.96875 13.578125 -4.1875 L 14.078125 -7.484375 C 14.140625 -7.898438 14.078125 -8.1875 13.890625 -8.34375 C 13.703125 -8.5 13.332031 -8.601562 12.78125 -8.65625 L 11.8125 -8.71875 Z M 11.9375 -9.8125 "/></g></g></g><g fill="#ffffff" fill-opacity="1"><g transform="translate(306.264625, 217.569684)"><g><path d="M 14.4375 -20.65625 C 17.007812 -20.539062 19.59375 -20.539062 22.1875 -20.65625 L 22.125 -19.5625 C 21.101562 -19.46875 20.285156 -19.328125 19.671875 -19.140625 C 19.066406 -18.953125 18.726562 -18.648438 18.65625 -18.234375 L 16.09375 0 L 14.96875 0 L 6.546875 -17.03125 L 4.421875 -2.265625 C 4.378906 -1.835938 4.625 -1.5625 5.15625 -1.4375 C 5.6875 -1.320312 6.453125 -1.207031 7.453125 -1.09375 L 7.390625 0 C 4.859375 -0.113281 2.285156 -0.113281 -0.328125 0 L -0.265625 -1.09375 C 0.773438 -1.207031 1.59375 -1.351562 2.1875 -1.53125 C 2.789062 -1.707031 3.125 -2.003906 3.1875 -2.421875 L 5.390625 -18.0625 C 5.503906 -18.882812 4.691406 -19.382812 2.953125 -19.5625 L 3.03125 -20.65625 C 5.09375 -20.570312 7.15625 -20.570312 9.21875 -20.65625 L 15.796875 -7.25 L 17.390625 -18.390625 C 17.441406 -18.816406 17.207031 -19.09375 16.6875 -19.21875 C 16.164062 -19.351562 15.40625 -19.46875 14.40625 -19.5625 Z M 14.4375 -20.65625 "/></g></g></g></svg>